<mxfile host="app.diagrams.net" modified="2024-04-25T23:15:50.090Z" agent="Mozilla/5.0 (Windows NT 10.0; Win64; x64) AppleWebKit/537.36 (KHTML, like Gecko) Chrome/124.0.0.0 Safari/537.36 Edg/124.0.0.0" etag="D31TUGCoDXXFsiPJZ9I2" version="24.3.0" type="device">
  <diagram id="C5RBs43oDa-KdzZeNtuy" name="Page-1">
    <mxGraphModel dx="3940" dy="3329" grid="1" gridSize="10" guides="1" tooltips="1" connect="1" arrows="1" fold="1" page="1" pageScale="1" pageWidth="827" pageHeight="1169" math="0" shadow="0">
      <root>
        <mxCell id="WIyWlLk6GJQsqaUBKTNV-0" />
        <mxCell id="WIyWlLk6GJQsqaUBKTNV-1" parent="WIyWlLk6GJQsqaUBKTNV-0" />
        <mxCell id="SehAdbR_RGNvju20ljE0-16" value="&lt;p style=&quot;margin:0px;margin-top:4px;text-align:center;&quot;&gt;&lt;b&gt;Personaje&lt;/b&gt;&lt;/p&gt;&lt;hr size=&quot;1&quot; style=&quot;border-style:solid;&quot;&gt;&lt;p style=&quot;margin:0px;margin-left:4px;&quot;&gt;- vida : int&lt;/p&gt;&lt;p style=&quot;margin:0px;margin-left:4px;&quot;&gt;- daño : int&lt;/p&gt;&lt;p style=&quot;margin:0px;margin-left:4px;&quot;&gt;- estaMuerto : bool&lt;/p&gt;&lt;p style=&quot;margin:0px;margin-left:4px;&quot;&gt;- nombre : string&lt;/p&gt;&lt;hr size=&quot;1&quot; style=&quot;border-style:solid;&quot;&gt;&lt;p style=&quot;margin:0px;margin-left:4px;&quot;&gt;+ curar()&lt;/p&gt;&lt;p style=&quot;margin:0px;margin-left:4px;&quot;&gt;+ recibirDaño()&lt;/p&gt;&lt;p style=&quot;margin:0px;margin-left:4px;&quot;&gt;+ cambiarNombre()&lt;/p&gt;&lt;p style=&quot;margin:0px;margin-left:4px;&quot;&gt;+ getIsDead() : bool&lt;/p&gt;" style="verticalAlign=top;align=left;overflow=fill;html=1;whiteSpace=wrap;" vertex="1" parent="WIyWlLk6GJQsqaUBKTNV-1">
          <mxGeometry x="750" y="630" width="160" height="180" as="geometry" />
        </mxCell>
        <mxCell id="SehAdbR_RGNvju20ljE0-22" value="curar()" style="ellipse;whiteSpace=wrap;html=1;" vertex="1" parent="WIyWlLk6GJQsqaUBKTNV-1">
          <mxGeometry x="280" width="120" height="80" as="geometry" />
        </mxCell>
        <mxCell id="SehAdbR_RGNvju20ljE0-33" style="edgeStyle=orthogonalEdgeStyle;rounded=0;orthogonalLoop=1;jettySize=auto;html=1;entryX=0.5;entryY=0;entryDx=0;entryDy=0;" edge="1" parent="WIyWlLk6GJQsqaUBKTNV-1" source="SehAdbR_RGNvju20ljE0-28" target="SehAdbR_RGNvju20ljE0-32">
          <mxGeometry relative="1" as="geometry" />
        </mxCell>
        <mxCell id="SehAdbR_RGNvju20ljE0-28" value="getVida" style="shape=parallelogram;perimeter=parallelogramPerimeter;whiteSpace=wrap;html=1;fixedSize=1;" vertex="1" parent="WIyWlLk6GJQsqaUBKTNV-1">
          <mxGeometry x="280" y="160" width="120" height="60" as="geometry" />
        </mxCell>
        <mxCell id="SehAdbR_RGNvju20ljE0-29" style="edgeStyle=orthogonalEdgeStyle;rounded=0;orthogonalLoop=1;jettySize=auto;html=1;entryX=0.567;entryY=-0.016;entryDx=0;entryDy=0;entryPerimeter=0;" edge="1" parent="WIyWlLk6GJQsqaUBKTNV-1" source="SehAdbR_RGNvju20ljE0-22" target="SehAdbR_RGNvju20ljE0-28">
          <mxGeometry relative="1" as="geometry" />
        </mxCell>
        <mxCell id="SehAdbR_RGNvju20ljE0-36" style="edgeStyle=orthogonalEdgeStyle;rounded=0;orthogonalLoop=1;jettySize=auto;html=1;entryX=0.5;entryY=0;entryDx=0;entryDy=0;" edge="1" parent="WIyWlLk6GJQsqaUBKTNV-1" source="SehAdbR_RGNvju20ljE0-32" target="SehAdbR_RGNvju20ljE0-34">
          <mxGeometry relative="1" as="geometry" />
        </mxCell>
        <mxCell id="SehAdbR_RGNvju20ljE0-32" value="vida = vidaActual + cantidadASumar" style="rounded=0;whiteSpace=wrap;html=1;" vertex="1" parent="WIyWlLk6GJQsqaUBKTNV-1">
          <mxGeometry x="280" y="260" width="120" height="60" as="geometry" />
        </mxCell>
        <mxCell id="SehAdbR_RGNvju20ljE0-38" style="edgeStyle=orthogonalEdgeStyle;rounded=0;orthogonalLoop=1;jettySize=auto;html=1;" edge="1" parent="WIyWlLk6GJQsqaUBKTNV-1" source="SehAdbR_RGNvju20ljE0-34" target="SehAdbR_RGNvju20ljE0-37">
          <mxGeometry relative="1" as="geometry" />
        </mxCell>
        <mxCell id="SehAdbR_RGNvju20ljE0-34" value="VidaActual = vida" style="shape=document;whiteSpace=wrap;html=1;boundedLbl=1;" vertex="1" parent="WIyWlLk6GJQsqaUBKTNV-1">
          <mxGeometry x="280" y="370" width="120" height="80" as="geometry" />
        </mxCell>
        <mxCell id="SehAdbR_RGNvju20ljE0-37" value="Fin" style="ellipse;whiteSpace=wrap;html=1;" vertex="1" parent="WIyWlLk6GJQsqaUBKTNV-1">
          <mxGeometry x="280" y="500" width="120" height="80" as="geometry" />
        </mxCell>
        <mxCell id="SehAdbR_RGNvju20ljE0-44" style="edgeStyle=orthogonalEdgeStyle;rounded=0;orthogonalLoop=1;jettySize=auto;html=1;entryX=0.5;entryY=0;entryDx=0;entryDy=0;" edge="1" parent="WIyWlLk6GJQsqaUBKTNV-1" source="SehAdbR_RGNvju20ljE0-41" target="SehAdbR_RGNvju20ljE0-43">
          <mxGeometry relative="1" as="geometry" />
        </mxCell>
        <mxCell id="SehAdbR_RGNvju20ljE0-41" value="&lt;span style=&quot;text-align: left;&quot;&gt;getIsDead()&lt;/span&gt;" style="ellipse;whiteSpace=wrap;html=1;" vertex="1" parent="WIyWlLk6GJQsqaUBKTNV-1">
          <mxGeometry x="670" y="10" width="120" height="80" as="geometry" />
        </mxCell>
        <mxCell id="SehAdbR_RGNvju20ljE0-45" style="edgeStyle=orthogonalEdgeStyle;rounded=0;orthogonalLoop=1;jettySize=auto;html=1;entryX=0.5;entryY=0;entryDx=0;entryDy=0;exitX=0;exitY=0.5;exitDx=0;exitDy=0;" edge="1" parent="WIyWlLk6GJQsqaUBKTNV-1" source="SehAdbR_RGNvju20ljE0-43" target="SehAdbR_RGNvju20ljE0-52">
          <mxGeometry relative="1" as="geometry">
            <mxPoint x="590" y="310" as="targetPoint" />
          </mxGeometry>
        </mxCell>
        <mxCell id="SehAdbR_RGNvju20ljE0-48" value="False" style="edgeLabel;html=1;align=center;verticalAlign=middle;resizable=0;points=[];" vertex="1" connectable="0" parent="SehAdbR_RGNvju20ljE0-45">
          <mxGeometry x="-0.2392" relative="1" as="geometry">
            <mxPoint as="offset" />
          </mxGeometry>
        </mxCell>
        <mxCell id="SehAdbR_RGNvju20ljE0-46" style="edgeStyle=orthogonalEdgeStyle;rounded=0;orthogonalLoop=1;jettySize=auto;html=1;entryX=0.513;entryY=-0.035;entryDx=0;entryDy=0;entryPerimeter=0;exitX=1;exitY=0.5;exitDx=0;exitDy=0;" edge="1" parent="WIyWlLk6GJQsqaUBKTNV-1" source="SehAdbR_RGNvju20ljE0-43" target="SehAdbR_RGNvju20ljE0-50">
          <mxGeometry relative="1" as="geometry">
            <mxPoint x="800" y="300" as="targetPoint" />
          </mxGeometry>
        </mxCell>
        <mxCell id="SehAdbR_RGNvju20ljE0-47" value="True" style="edgeLabel;html=1;align=center;verticalAlign=middle;resizable=0;points=[];" vertex="1" connectable="0" parent="SehAdbR_RGNvju20ljE0-46">
          <mxGeometry x="-0.157" y="-2" relative="1" as="geometry">
            <mxPoint as="offset" />
          </mxGeometry>
        </mxCell>
        <mxCell id="SehAdbR_RGNvju20ljE0-43" value="vida &amp;lt;= 0" style="rhombus;whiteSpace=wrap;html=1;" vertex="1" parent="WIyWlLk6GJQsqaUBKTNV-1">
          <mxGeometry x="660" y="200" width="140" height="80" as="geometry" />
        </mxCell>
        <mxCell id="SehAdbR_RGNvju20ljE0-83" style="edgeStyle=orthogonalEdgeStyle;rounded=0;orthogonalLoop=1;jettySize=auto;html=1;entryX=1;entryY=0.5;entryDx=0;entryDy=0;exitX=0.357;exitY=1.005;exitDx=0;exitDy=0;exitPerimeter=0;" edge="1" parent="WIyWlLk6GJQsqaUBKTNV-1" source="SehAdbR_RGNvju20ljE0-50" target="SehAdbR_RGNvju20ljE0-53">
          <mxGeometry relative="1" as="geometry">
            <mxPoint x="789.9999999999998" y="570" as="targetPoint" />
          </mxGeometry>
        </mxCell>
        <mxCell id="SehAdbR_RGNvju20ljE0-50" value="estaMuerto = true" style="shape=document;whiteSpace=wrap;html=1;boundedLbl=1;" vertex="1" parent="WIyWlLk6GJQsqaUBKTNV-1">
          <mxGeometry x="810" y="360" width="120" height="80" as="geometry" />
        </mxCell>
        <mxCell id="SehAdbR_RGNvju20ljE0-55" style="edgeStyle=orthogonalEdgeStyle;rounded=0;orthogonalLoop=1;jettySize=auto;html=1;entryX=0;entryY=0.5;entryDx=0;entryDy=0;" edge="1" parent="WIyWlLk6GJQsqaUBKTNV-1" source="SehAdbR_RGNvju20ljE0-52" target="SehAdbR_RGNvju20ljE0-53">
          <mxGeometry relative="1" as="geometry" />
        </mxCell>
        <mxCell id="SehAdbR_RGNvju20ljE0-52" value="estaMuerto = falso" style="shape=document;whiteSpace=wrap;html=1;boundedLbl=1;" vertex="1" parent="WIyWlLk6GJQsqaUBKTNV-1">
          <mxGeometry x="530" y="360" width="120" height="80" as="geometry" />
        </mxCell>
        <mxCell id="SehAdbR_RGNvju20ljE0-53" value="Fin" style="ellipse;whiteSpace=wrap;html=1;" vertex="1" parent="WIyWlLk6GJQsqaUBKTNV-1">
          <mxGeometry x="650" y="530" width="130" height="80" as="geometry" />
        </mxCell>
        <mxCell id="SehAdbR_RGNvju20ljE0-56" value="recibirDaño()" style="ellipse;whiteSpace=wrap;html=1;" vertex="1" parent="WIyWlLk6GJQsqaUBKTNV-1">
          <mxGeometry x="1330" y="40" width="120" height="80" as="geometry" />
        </mxCell>
        <mxCell id="SehAdbR_RGNvju20ljE0-62" style="edgeStyle=orthogonalEdgeStyle;rounded=0;orthogonalLoop=1;jettySize=auto;html=1;entryX=0.5;entryY=0;entryDx=0;entryDy=0;" edge="1" parent="WIyWlLk6GJQsqaUBKTNV-1" source="SehAdbR_RGNvju20ljE0-59" target="SehAdbR_RGNvju20ljE0-61">
          <mxGeometry relative="1" as="geometry" />
        </mxCell>
        <mxCell id="SehAdbR_RGNvju20ljE0-59" value="getVida()" style="shape=parallelogram;perimeter=parallelogramPerimeter;whiteSpace=wrap;html=1;fixedSize=1;" vertex="1" parent="WIyWlLk6GJQsqaUBKTNV-1">
          <mxGeometry x="1330" y="150" width="120" height="60" as="geometry" />
        </mxCell>
        <mxCell id="SehAdbR_RGNvju20ljE0-60" style="edgeStyle=orthogonalEdgeStyle;rounded=0;orthogonalLoop=1;jettySize=auto;html=1;entryX=0.5;entryY=0;entryDx=0;entryDy=0;" edge="1" parent="WIyWlLk6GJQsqaUBKTNV-1" source="SehAdbR_RGNvju20ljE0-56" target="SehAdbR_RGNvju20ljE0-59">
          <mxGeometry relative="1" as="geometry" />
        </mxCell>
        <mxCell id="SehAdbR_RGNvju20ljE0-63" style="edgeStyle=orthogonalEdgeStyle;rounded=0;orthogonalLoop=1;jettySize=auto;html=1;entryX=0.5;entryY=0;entryDx=0;entryDy=0;" edge="1" parent="WIyWlLk6GJQsqaUBKTNV-1" source="SehAdbR_RGNvju20ljE0-61" target="SehAdbR_RGNvju20ljE0-68">
          <mxGeometry relative="1" as="geometry">
            <mxPoint x="1220" y="390" as="targetPoint" />
          </mxGeometry>
        </mxCell>
        <mxCell id="SehAdbR_RGNvju20ljE0-65" value="False" style="edgeLabel;html=1;align=center;verticalAlign=middle;resizable=0;points=[];" vertex="1" connectable="0" parent="SehAdbR_RGNvju20ljE0-63">
          <mxGeometry x="0.206" y="-2" relative="1" as="geometry">
            <mxPoint as="offset" />
          </mxGeometry>
        </mxCell>
        <mxCell id="SehAdbR_RGNvju20ljE0-66" style="edgeStyle=orthogonalEdgeStyle;rounded=0;orthogonalLoop=1;jettySize=auto;html=1;entryX=1;entryY=0.5;entryDx=0;entryDy=0;exitX=1;exitY=0.5;exitDx=0;exitDy=0;" edge="1" parent="WIyWlLk6GJQsqaUBKTNV-1" source="SehAdbR_RGNvju20ljE0-61" target="SehAdbR_RGNvju20ljE0-73">
          <mxGeometry relative="1" as="geometry">
            <mxPoint x="1560" y="410" as="targetPoint" />
          </mxGeometry>
        </mxCell>
        <mxCell id="SehAdbR_RGNvju20ljE0-67" value="True" style="edgeLabel;html=1;align=center;verticalAlign=middle;resizable=0;points=[];" vertex="1" connectable="0" parent="SehAdbR_RGNvju20ljE0-66">
          <mxGeometry x="0.2152" relative="1" as="geometry">
            <mxPoint as="offset" />
          </mxGeometry>
        </mxCell>
        <mxCell id="SehAdbR_RGNvju20ljE0-61" value="getIsDead()" style="rhombus;whiteSpace=wrap;html=1;" vertex="1" parent="WIyWlLk6GJQsqaUBKTNV-1">
          <mxGeometry x="1330" y="265" width="120" height="50" as="geometry" />
        </mxCell>
        <mxCell id="SehAdbR_RGNvju20ljE0-70" style="edgeStyle=orthogonalEdgeStyle;rounded=0;orthogonalLoop=1;jettySize=auto;html=1;entryX=0.5;entryY=0;entryDx=0;entryDy=0;" edge="1" parent="WIyWlLk6GJQsqaUBKTNV-1" source="SehAdbR_RGNvju20ljE0-68" target="SehAdbR_RGNvju20ljE0-69">
          <mxGeometry relative="1" as="geometry" />
        </mxCell>
        <mxCell id="SehAdbR_RGNvju20ljE0-68" value="getDañoRecibido" style="shape=parallelogram;perimeter=parallelogramPerimeter;whiteSpace=wrap;html=1;fixedSize=1;" vertex="1" parent="WIyWlLk6GJQsqaUBKTNV-1">
          <mxGeometry x="1160" y="360" width="120" height="60" as="geometry" />
        </mxCell>
        <mxCell id="SehAdbR_RGNvju20ljE0-72" style="edgeStyle=orthogonalEdgeStyle;rounded=0;orthogonalLoop=1;jettySize=auto;html=1;entryX=0.5;entryY=0;entryDx=0;entryDy=0;" edge="1" parent="WIyWlLk6GJQsqaUBKTNV-1" source="SehAdbR_RGNvju20ljE0-69" target="SehAdbR_RGNvju20ljE0-71">
          <mxGeometry relative="1" as="geometry" />
        </mxCell>
        <mxCell id="SehAdbR_RGNvju20ljE0-69" value="vida = vida - dañoRecibido" style="rounded=0;whiteSpace=wrap;html=1;" vertex="1" parent="WIyWlLk6GJQsqaUBKTNV-1">
          <mxGeometry x="1160" y="480" width="120" height="60" as="geometry" />
        </mxCell>
        <mxCell id="SehAdbR_RGNvju20ljE0-89" style="edgeStyle=orthogonalEdgeStyle;rounded=0;orthogonalLoop=1;jettySize=auto;html=1;" edge="1" parent="WIyWlLk6GJQsqaUBKTNV-1" source="SehAdbR_RGNvju20ljE0-71" target="SehAdbR_RGNvju20ljE0-88">
          <mxGeometry relative="1" as="geometry" />
        </mxCell>
        <mxCell id="SehAdbR_RGNvju20ljE0-71" value="vidaActual = vida" style="shape=document;whiteSpace=wrap;html=1;boundedLbl=1;" vertex="1" parent="WIyWlLk6GJQsqaUBKTNV-1">
          <mxGeometry x="1160" y="600" width="120" height="70" as="geometry" />
        </mxCell>
        <mxCell id="SehAdbR_RGNvju20ljE0-73" value="Fin" style="ellipse;whiteSpace=wrap;html=1;" vertex="1" parent="WIyWlLk6GJQsqaUBKTNV-1">
          <mxGeometry x="1450" y="730" width="120" height="80" as="geometry" />
        </mxCell>
        <mxCell id="SehAdbR_RGNvju20ljE0-92" style="edgeStyle=orthogonalEdgeStyle;rounded=0;orthogonalLoop=1;jettySize=auto;html=1;" edge="1" parent="WIyWlLk6GJQsqaUBKTNV-1" source="SehAdbR_RGNvju20ljE0-87" target="SehAdbR_RGNvju20ljE0-73">
          <mxGeometry relative="1" as="geometry" />
        </mxCell>
        <mxCell id="SehAdbR_RGNvju20ljE0-87" value="Muerte()" style="rounded=0;whiteSpace=wrap;html=1;" vertex="1" parent="WIyWlLk6GJQsqaUBKTNV-1">
          <mxGeometry x="1050" y="860" width="120" height="60" as="geometry" />
        </mxCell>
        <mxCell id="SehAdbR_RGNvju20ljE0-90" style="edgeStyle=orthogonalEdgeStyle;rounded=0;orthogonalLoop=1;jettySize=auto;html=1;entryX=0.5;entryY=0;entryDx=0;entryDy=0;exitX=0;exitY=0.5;exitDx=0;exitDy=0;" edge="1" parent="WIyWlLk6GJQsqaUBKTNV-1" source="SehAdbR_RGNvju20ljE0-88" target="SehAdbR_RGNvju20ljE0-87">
          <mxGeometry relative="1" as="geometry" />
        </mxCell>
        <mxCell id="SehAdbR_RGNvju20ljE0-93" value="True" style="edgeLabel;html=1;align=center;verticalAlign=middle;resizable=0;points=[];" vertex="1" connectable="0" parent="SehAdbR_RGNvju20ljE0-90">
          <mxGeometry x="0.1548" y="4" relative="1" as="geometry">
            <mxPoint x="-1" as="offset" />
          </mxGeometry>
        </mxCell>
        <mxCell id="SehAdbR_RGNvju20ljE0-91" style="edgeStyle=orthogonalEdgeStyle;rounded=0;orthogonalLoop=1;jettySize=auto;html=1;entryX=0;entryY=0.5;entryDx=0;entryDy=0;" edge="1" parent="WIyWlLk6GJQsqaUBKTNV-1" source="SehAdbR_RGNvju20ljE0-88" target="SehAdbR_RGNvju20ljE0-73">
          <mxGeometry relative="1" as="geometry" />
        </mxCell>
        <mxCell id="SehAdbR_RGNvju20ljE0-94" value="False" style="edgeLabel;html=1;align=center;verticalAlign=middle;resizable=0;points=[];" vertex="1" connectable="0" parent="SehAdbR_RGNvju20ljE0-91">
          <mxGeometry x="-0.4061" y="3" relative="1" as="geometry">
            <mxPoint x="24" y="3" as="offset" />
          </mxGeometry>
        </mxCell>
        <mxCell id="SehAdbR_RGNvju20ljE0-88" value="getIsDead()" style="rhombus;whiteSpace=wrap;html=1;" vertex="1" parent="WIyWlLk6GJQsqaUBKTNV-1">
          <mxGeometry x="1150" y="730" width="140" height="60" as="geometry" />
        </mxCell>
        <mxCell id="SehAdbR_RGNvju20ljE0-95" value="recibirDaño()" style="ellipse;whiteSpace=wrap;html=1;" vertex="1" parent="WIyWlLk6GJQsqaUBKTNV-1">
          <mxGeometry x="1920" y="50" width="120" height="80" as="geometry" />
        </mxCell>
        <mxCell id="SehAdbR_RGNvju20ljE0-96" style="edgeStyle=orthogonalEdgeStyle;rounded=0;orthogonalLoop=1;jettySize=auto;html=1;entryX=0.5;entryY=0;entryDx=0;entryDy=0;" edge="1" parent="WIyWlLk6GJQsqaUBKTNV-1" source="SehAdbR_RGNvju20ljE0-97" target="SehAdbR_RGNvju20ljE0-103">
          <mxGeometry relative="1" as="geometry" />
        </mxCell>
        <mxCell id="SehAdbR_RGNvju20ljE0-97" value="getVida()" style="shape=parallelogram;perimeter=parallelogramPerimeter;whiteSpace=wrap;html=1;fixedSize=1;" vertex="1" parent="WIyWlLk6GJQsqaUBKTNV-1">
          <mxGeometry x="1920" y="160" width="120" height="60" as="geometry" />
        </mxCell>
        <mxCell id="SehAdbR_RGNvju20ljE0-98" style="edgeStyle=orthogonalEdgeStyle;rounded=0;orthogonalLoop=1;jettySize=auto;html=1;entryX=0.5;entryY=0;entryDx=0;entryDy=0;" edge="1" parent="WIyWlLk6GJQsqaUBKTNV-1" source="SehAdbR_RGNvju20ljE0-95" target="SehAdbR_RGNvju20ljE0-97">
          <mxGeometry relative="1" as="geometry" />
        </mxCell>
        <mxCell id="SehAdbR_RGNvju20ljE0-99" style="edgeStyle=orthogonalEdgeStyle;rounded=0;orthogonalLoop=1;jettySize=auto;html=1;entryX=0.5;entryY=0;entryDx=0;entryDy=0;" edge="1" parent="WIyWlLk6GJQsqaUBKTNV-1" source="SehAdbR_RGNvju20ljE0-103" target="SehAdbR_RGNvju20ljE0-105">
          <mxGeometry relative="1" as="geometry">
            <mxPoint x="1810" y="400" as="targetPoint" />
          </mxGeometry>
        </mxCell>
        <mxCell id="SehAdbR_RGNvju20ljE0-100" value="False" style="edgeLabel;html=1;align=center;verticalAlign=middle;resizable=0;points=[];" vertex="1" connectable="0" parent="SehAdbR_RGNvju20ljE0-99">
          <mxGeometry x="0.206" y="-2" relative="1" as="geometry">
            <mxPoint as="offset" />
          </mxGeometry>
        </mxCell>
        <mxCell id="SehAdbR_RGNvju20ljE0-101" style="edgeStyle=orthogonalEdgeStyle;rounded=0;orthogonalLoop=1;jettySize=auto;html=1;entryX=1;entryY=0.5;entryDx=0;entryDy=0;exitX=1;exitY=0.5;exitDx=0;exitDy=0;" edge="1" parent="WIyWlLk6GJQsqaUBKTNV-1" source="SehAdbR_RGNvju20ljE0-103" target="SehAdbR_RGNvju20ljE0-110">
          <mxGeometry relative="1" as="geometry">
            <mxPoint x="2150" y="420" as="targetPoint" />
          </mxGeometry>
        </mxCell>
        <mxCell id="SehAdbR_RGNvju20ljE0-102" value="True" style="edgeLabel;html=1;align=center;verticalAlign=middle;resizable=0;points=[];" vertex="1" connectable="0" parent="SehAdbR_RGNvju20ljE0-101">
          <mxGeometry x="0.2152" relative="1" as="geometry">
            <mxPoint as="offset" />
          </mxGeometry>
        </mxCell>
        <mxCell id="SehAdbR_RGNvju20ljE0-103" value="getIsDead()" style="rhombus;whiteSpace=wrap;html=1;" vertex="1" parent="WIyWlLk6GJQsqaUBKTNV-1">
          <mxGeometry x="1920" y="275" width="120" height="50" as="geometry" />
        </mxCell>
        <mxCell id="SehAdbR_RGNvju20ljE0-104" style="edgeStyle=orthogonalEdgeStyle;rounded=0;orthogonalLoop=1;jettySize=auto;html=1;entryX=0.5;entryY=0;entryDx=0;entryDy=0;" edge="1" parent="WIyWlLk6GJQsqaUBKTNV-1" source="SehAdbR_RGNvju20ljE0-105" target="SehAdbR_RGNvju20ljE0-107">
          <mxGeometry relative="1" as="geometry" />
        </mxCell>
        <mxCell id="SehAdbR_RGNvju20ljE0-105" value="getDañoRecibido" style="shape=parallelogram;perimeter=parallelogramPerimeter;whiteSpace=wrap;html=1;fixedSize=1;" vertex="1" parent="WIyWlLk6GJQsqaUBKTNV-1">
          <mxGeometry x="1750" y="370" width="120" height="60" as="geometry" />
        </mxCell>
        <mxCell id="SehAdbR_RGNvju20ljE0-106" style="edgeStyle=orthogonalEdgeStyle;rounded=0;orthogonalLoop=1;jettySize=auto;html=1;entryX=0.5;entryY=0;entryDx=0;entryDy=0;" edge="1" parent="WIyWlLk6GJQsqaUBKTNV-1" source="SehAdbR_RGNvju20ljE0-107" target="SehAdbR_RGNvju20ljE0-109">
          <mxGeometry relative="1" as="geometry" />
        </mxCell>
        <mxCell id="SehAdbR_RGNvju20ljE0-107" value="vida = vida - dañoRecibido" style="rounded=0;whiteSpace=wrap;html=1;" vertex="1" parent="WIyWlLk6GJQsqaUBKTNV-1">
          <mxGeometry x="1750" y="490" width="120" height="60" as="geometry" />
        </mxCell>
        <mxCell id="SehAdbR_RGNvju20ljE0-108" style="edgeStyle=orthogonalEdgeStyle;rounded=0;orthogonalLoop=1;jettySize=auto;html=1;" edge="1" parent="WIyWlLk6GJQsqaUBKTNV-1" source="SehAdbR_RGNvju20ljE0-109" target="SehAdbR_RGNvju20ljE0-117">
          <mxGeometry relative="1" as="geometry" />
        </mxCell>
        <mxCell id="SehAdbR_RGNvju20ljE0-109" value="vidaActual = vida" style="shape=document;whiteSpace=wrap;html=1;boundedLbl=1;" vertex="1" parent="WIyWlLk6GJQsqaUBKTNV-1">
          <mxGeometry x="1750" y="610" width="120" height="70" as="geometry" />
        </mxCell>
        <mxCell id="SehAdbR_RGNvju20ljE0-110" value="Fin" style="ellipse;whiteSpace=wrap;html=1;" vertex="1" parent="WIyWlLk6GJQsqaUBKTNV-1">
          <mxGeometry x="2120" y="780" width="120" height="80" as="geometry" />
        </mxCell>
        <mxCell id="SehAdbR_RGNvju20ljE0-111" style="edgeStyle=orthogonalEdgeStyle;rounded=0;orthogonalLoop=1;jettySize=auto;html=1;" edge="1" parent="WIyWlLk6GJQsqaUBKTNV-1" source="SehAdbR_RGNvju20ljE0-112" target="SehAdbR_RGNvju20ljE0-110">
          <mxGeometry relative="1" as="geometry" />
        </mxCell>
        <mxCell id="SehAdbR_RGNvju20ljE0-112" value="Muerte()" style="rounded=0;whiteSpace=wrap;html=1;" vertex="1" parent="WIyWlLk6GJQsqaUBKTNV-1">
          <mxGeometry x="1640" y="870" width="120" height="60" as="geometry" />
        </mxCell>
        <mxCell id="SehAdbR_RGNvju20ljE0-113" style="edgeStyle=orthogonalEdgeStyle;rounded=0;orthogonalLoop=1;jettySize=auto;html=1;entryX=0.5;entryY=0;entryDx=0;entryDy=0;exitX=0;exitY=0.5;exitDx=0;exitDy=0;" edge="1" parent="WIyWlLk6GJQsqaUBKTNV-1" source="SehAdbR_RGNvju20ljE0-117" target="SehAdbR_RGNvju20ljE0-112">
          <mxGeometry relative="1" as="geometry" />
        </mxCell>
        <mxCell id="SehAdbR_RGNvju20ljE0-114" value="True" style="edgeLabel;html=1;align=center;verticalAlign=middle;resizable=0;points=[];" vertex="1" connectable="0" parent="SehAdbR_RGNvju20ljE0-113">
          <mxGeometry x="0.1548" y="4" relative="1" as="geometry">
            <mxPoint x="-1" as="offset" />
          </mxGeometry>
        </mxCell>
        <mxCell id="SehAdbR_RGNvju20ljE0-122" style="edgeStyle=orthogonalEdgeStyle;rounded=0;orthogonalLoop=1;jettySize=auto;html=1;entryX=1;entryY=0.5;entryDx=0;entryDy=0;" edge="1" parent="WIyWlLk6GJQsqaUBKTNV-1" source="SehAdbR_RGNvju20ljE0-117" target="SehAdbR_RGNvju20ljE0-105">
          <mxGeometry relative="1" as="geometry">
            <Array as="points">
              <mxPoint x="2060" y="770" />
              <mxPoint x="2060" y="400" />
            </Array>
          </mxGeometry>
        </mxCell>
        <mxCell id="SehAdbR_RGNvju20ljE0-128" value="false" style="edgeLabel;html=1;align=center;verticalAlign=middle;resizable=0;points=[];" vertex="1" connectable="0" parent="SehAdbR_RGNvju20ljE0-122">
          <mxGeometry x="0.2879" y="1" relative="1" as="geometry">
            <mxPoint x="1" y="57" as="offset" />
          </mxGeometry>
        </mxCell>
        <mxCell id="SehAdbR_RGNvju20ljE0-117" value="getIsDead()" style="rhombus;whiteSpace=wrap;html=1;" vertex="1" parent="WIyWlLk6GJQsqaUBKTNV-1">
          <mxGeometry x="1740" y="740" width="140" height="60" as="geometry" />
        </mxCell>
        <mxCell id="SehAdbR_RGNvju20ljE0-119" value="Daño de un golpe" style="text;html=1;align=center;verticalAlign=middle;whiteSpace=wrap;rounded=0;fontSize=24;" vertex="1" parent="WIyWlLk6GJQsqaUBKTNV-1">
          <mxGeometry x="1280" y="-20" width="220" height="30" as="geometry" />
        </mxCell>
        <mxCell id="SehAdbR_RGNvju20ljE0-120" value="Daño constante" style="text;html=1;align=center;verticalAlign=middle;whiteSpace=wrap;rounded=0;fontSize=24;" vertex="1" parent="WIyWlLk6GJQsqaUBKTNV-1">
          <mxGeometry x="1870" y="-20" width="220" height="30" as="geometry" />
        </mxCell>
        <mxCell id="SehAdbR_RGNvju20ljE0-131" value="recibirDaño()" style="ellipse;whiteSpace=wrap;html=1;" vertex="1" parent="WIyWlLk6GJQsqaUBKTNV-1">
          <mxGeometry x="2850" y="-80" width="120" height="80" as="geometry" />
        </mxCell>
        <mxCell id="SehAdbR_RGNvju20ljE0-132" style="edgeStyle=orthogonalEdgeStyle;rounded=0;orthogonalLoop=1;jettySize=auto;html=1;entryX=0.5;entryY=0;entryDx=0;entryDy=0;" edge="1" parent="WIyWlLk6GJQsqaUBKTNV-1" source="SehAdbR_RGNvju20ljE0-133" target="SehAdbR_RGNvju20ljE0-139">
          <mxGeometry relative="1" as="geometry" />
        </mxCell>
        <mxCell id="SehAdbR_RGNvju20ljE0-133" value="getVida()" style="shape=parallelogram;perimeter=parallelogramPerimeter;whiteSpace=wrap;html=1;fixedSize=1;" vertex="1" parent="WIyWlLk6GJQsqaUBKTNV-1">
          <mxGeometry x="2850" y="30" width="120" height="60" as="geometry" />
        </mxCell>
        <mxCell id="SehAdbR_RGNvju20ljE0-134" style="edgeStyle=orthogonalEdgeStyle;rounded=0;orthogonalLoop=1;jettySize=auto;html=1;entryX=0.5;entryY=0;entryDx=0;entryDy=0;" edge="1" parent="WIyWlLk6GJQsqaUBKTNV-1" source="SehAdbR_RGNvju20ljE0-131" target="SehAdbR_RGNvju20ljE0-133">
          <mxGeometry relative="1" as="geometry" />
        </mxCell>
        <mxCell id="SehAdbR_RGNvju20ljE0-135" style="edgeStyle=orthogonalEdgeStyle;rounded=0;orthogonalLoop=1;jettySize=auto;html=1;entryX=0.5;entryY=0;entryDx=0;entryDy=0;" edge="1" parent="WIyWlLk6GJQsqaUBKTNV-1" source="SehAdbR_RGNvju20ljE0-139" target="SehAdbR_RGNvju20ljE0-141">
          <mxGeometry relative="1" as="geometry">
            <mxPoint x="2740" y="380" as="targetPoint" />
          </mxGeometry>
        </mxCell>
        <mxCell id="SehAdbR_RGNvju20ljE0-136" value="False" style="edgeLabel;html=1;align=center;verticalAlign=middle;resizable=0;points=[];" vertex="1" connectable="0" parent="SehAdbR_RGNvju20ljE0-135">
          <mxGeometry x="0.206" y="-2" relative="1" as="geometry">
            <mxPoint as="offset" />
          </mxGeometry>
        </mxCell>
        <mxCell id="SehAdbR_RGNvju20ljE0-137" style="edgeStyle=orthogonalEdgeStyle;rounded=0;orthogonalLoop=1;jettySize=auto;html=1;entryX=1;entryY=0.5;entryDx=0;entryDy=0;exitX=1;exitY=0.5;exitDx=0;exitDy=0;" edge="1" parent="WIyWlLk6GJQsqaUBKTNV-1" source="SehAdbR_RGNvju20ljE0-139" target="SehAdbR_RGNvju20ljE0-146">
          <mxGeometry relative="1" as="geometry">
            <mxPoint x="3080" y="400" as="targetPoint" />
          </mxGeometry>
        </mxCell>
        <mxCell id="SehAdbR_RGNvju20ljE0-138" value="True" style="edgeLabel;html=1;align=center;verticalAlign=middle;resizable=0;points=[];" vertex="1" connectable="0" parent="SehAdbR_RGNvju20ljE0-137">
          <mxGeometry x="0.2152" relative="1" as="geometry">
            <mxPoint as="offset" />
          </mxGeometry>
        </mxCell>
        <mxCell id="SehAdbR_RGNvju20ljE0-139" value="getIsDead()" style="rhombus;whiteSpace=wrap;html=1;" vertex="1" parent="WIyWlLk6GJQsqaUBKTNV-1">
          <mxGeometry x="2850" y="255" width="120" height="50" as="geometry" />
        </mxCell>
        <mxCell id="SehAdbR_RGNvju20ljE0-140" style="edgeStyle=orthogonalEdgeStyle;rounded=0;orthogonalLoop=1;jettySize=auto;html=1;entryX=0.5;entryY=0;entryDx=0;entryDy=0;" edge="1" parent="WIyWlLk6GJQsqaUBKTNV-1" source="SehAdbR_RGNvju20ljE0-141" target="SehAdbR_RGNvju20ljE0-143">
          <mxGeometry relative="1" as="geometry" />
        </mxCell>
        <mxCell id="SehAdbR_RGNvju20ljE0-141" value="getDañoRecibido" style="shape=parallelogram;perimeter=parallelogramPerimeter;whiteSpace=wrap;html=1;fixedSize=1;" vertex="1" parent="WIyWlLk6GJQsqaUBKTNV-1">
          <mxGeometry x="2680" y="350" width="120" height="60" as="geometry" />
        </mxCell>
        <mxCell id="SehAdbR_RGNvju20ljE0-142" style="edgeStyle=orthogonalEdgeStyle;rounded=0;orthogonalLoop=1;jettySize=auto;html=1;entryX=0.5;entryY=0;entryDx=0;entryDy=0;exitX=0.5;exitY=1;exitDx=0;exitDy=0;" edge="1" parent="WIyWlLk6GJQsqaUBKTNV-1" source="SehAdbR_RGNvju20ljE0-143" target="SehAdbR_RGNvju20ljE0-145">
          <mxGeometry relative="1" as="geometry">
            <mxPoint x="2740.0370370370365" y="520" as="sourcePoint" />
          </mxGeometry>
        </mxCell>
        <mxCell id="SehAdbR_RGNvju20ljE0-143" value="vida = vida - dañoRecibido" style="rounded=0;whiteSpace=wrap;html=1;" vertex="1" parent="WIyWlLk6GJQsqaUBKTNV-1">
          <mxGeometry x="2680" y="440" width="120" height="60" as="geometry" />
        </mxCell>
        <mxCell id="SehAdbR_RGNvju20ljE0-145" value="vidaActual = vida" style="shape=document;whiteSpace=wrap;html=1;boundedLbl=1;" vertex="1" parent="WIyWlLk6GJQsqaUBKTNV-1">
          <mxGeometry x="2680" y="560" width="120" height="70" as="geometry" />
        </mxCell>
        <mxCell id="SehAdbR_RGNvju20ljE0-146" value="Fin" style="ellipse;whiteSpace=wrap;html=1;" vertex="1" parent="WIyWlLk6GJQsqaUBKTNV-1">
          <mxGeometry x="3100" y="1020" width="120" height="80" as="geometry" />
        </mxCell>
        <mxCell id="SehAdbR_RGNvju20ljE0-147" style="edgeStyle=orthogonalEdgeStyle;rounded=0;orthogonalLoop=1;jettySize=auto;html=1;" edge="1" parent="WIyWlLk6GJQsqaUBKTNV-1" source="SehAdbR_RGNvju20ljE0-148" target="SehAdbR_RGNvju20ljE0-146">
          <mxGeometry relative="1" as="geometry" />
        </mxCell>
        <mxCell id="SehAdbR_RGNvju20ljE0-148" value="Muerte()" style="rounded=0;whiteSpace=wrap;html=1;" vertex="1" parent="WIyWlLk6GJQsqaUBKTNV-1">
          <mxGeometry x="2560" y="1030" width="120" height="60" as="geometry" />
        </mxCell>
        <mxCell id="SehAdbR_RGNvju20ljE0-149" style="edgeStyle=orthogonalEdgeStyle;rounded=0;orthogonalLoop=1;jettySize=auto;html=1;entryX=0.5;entryY=0;entryDx=0;entryDy=0;exitX=0;exitY=0.5;exitDx=0;exitDy=0;" edge="1" parent="WIyWlLk6GJQsqaUBKTNV-1" source="SehAdbR_RGNvju20ljE0-153" target="SehAdbR_RGNvju20ljE0-148">
          <mxGeometry relative="1" as="geometry" />
        </mxCell>
        <mxCell id="SehAdbR_RGNvju20ljE0-150" value="True" style="edgeLabel;html=1;align=center;verticalAlign=middle;resizable=0;points=[];" vertex="1" connectable="0" parent="SehAdbR_RGNvju20ljE0-149">
          <mxGeometry x="0.1548" y="4" relative="1" as="geometry">
            <mxPoint x="-1" as="offset" />
          </mxGeometry>
        </mxCell>
        <mxCell id="SehAdbR_RGNvju20ljE0-151" style="edgeStyle=orthogonalEdgeStyle;rounded=0;orthogonalLoop=1;jettySize=auto;html=1;entryX=1;entryY=0.5;entryDx=0;entryDy=0;exitX=1;exitY=0.5;exitDx=0;exitDy=0;" edge="1" parent="WIyWlLk6GJQsqaUBKTNV-1" source="SehAdbR_RGNvju20ljE0-153" target="SehAdbR_RGNvju20ljE0-141">
          <mxGeometry relative="1" as="geometry">
            <Array as="points">
              <mxPoint x="2990" y="910" />
              <mxPoint x="2990" y="380" />
            </Array>
          </mxGeometry>
        </mxCell>
        <mxCell id="SehAdbR_RGNvju20ljE0-152" value="false" style="edgeLabel;html=1;align=center;verticalAlign=middle;resizable=0;points=[];" vertex="1" connectable="0" parent="SehAdbR_RGNvju20ljE0-151">
          <mxGeometry x="0.2879" y="1" relative="1" as="geometry">
            <mxPoint x="1" y="57" as="offset" />
          </mxGeometry>
        </mxCell>
        <mxCell id="SehAdbR_RGNvju20ljE0-163" value="false" style="edgeLabel;html=1;align=center;verticalAlign=middle;resizable=0;points=[];" vertex="1" connectable="0" parent="SehAdbR_RGNvju20ljE0-151">
          <mxGeometry x="-0.5522" y="1" relative="1" as="geometry">
            <mxPoint as="offset" />
          </mxGeometry>
        </mxCell>
        <mxCell id="SehAdbR_RGNvju20ljE0-153" value="getIsDead()" style="rhombus;whiteSpace=wrap;html=1;" vertex="1" parent="WIyWlLk6GJQsqaUBKTNV-1">
          <mxGeometry x="2670" y="880" width="140" height="60" as="geometry" />
        </mxCell>
        <mxCell id="SehAdbR_RGNvju20ljE0-162" style="edgeStyle=orthogonalEdgeStyle;rounded=0;orthogonalLoop=1;jettySize=auto;html=1;entryX=0.5;entryY=0;entryDx=0;entryDy=0;" edge="1" parent="WIyWlLk6GJQsqaUBKTNV-1" source="SehAdbR_RGNvju20ljE0-155" target="SehAdbR_RGNvju20ljE0-153">
          <mxGeometry relative="1" as="geometry" />
        </mxCell>
        <mxCell id="SehAdbR_RGNvju20ljE0-155" value="counter = counter + 1" style="rounded=0;whiteSpace=wrap;html=1;" vertex="1" parent="WIyWlLk6GJQsqaUBKTNV-1">
          <mxGeometry x="2680" y="710" width="120" height="60" as="geometry" />
        </mxCell>
        <mxCell id="SehAdbR_RGNvju20ljE0-157" value="" style="edgeStyle=orthogonalEdgeStyle;rounded=0;orthogonalLoop=1;jettySize=auto;html=1;entryX=0.5;entryY=0;entryDx=0;entryDy=0;" edge="1" parent="WIyWlLk6GJQsqaUBKTNV-1" source="SehAdbR_RGNvju20ljE0-145" target="SehAdbR_RGNvju20ljE0-155">
          <mxGeometry relative="1" as="geometry">
            <mxPoint x="2740" y="600" as="sourcePoint" />
            <mxPoint x="2740" y="630" as="targetPoint" />
          </mxGeometry>
        </mxCell>
        <mxCell id="SehAdbR_RGNvju20ljE0-159" value="Daño por x cantidad de veces&amp;nbsp;" style="text;html=1;align=center;verticalAlign=middle;whiteSpace=wrap;rounded=0;fontSize=24;" vertex="1" parent="WIyWlLk6GJQsqaUBKTNV-1">
          <mxGeometry x="2775" y="-140" width="270" height="30" as="geometry" />
        </mxCell>
        <mxCell id="SehAdbR_RGNvju20ljE0-160" value="counter = 0" style="rounded=0;whiteSpace=wrap;html=1;" vertex="1" parent="WIyWlLk6GJQsqaUBKTNV-1">
          <mxGeometry x="2850" y="130" width="120" height="60" as="geometry" />
        </mxCell>
        <mxCell id="SehAdbR_RGNvju20ljE0-164" style="edgeStyle=orthogonalEdgeStyle;rounded=0;orthogonalLoop=1;jettySize=auto;html=1;" edge="1" parent="WIyWlLk6GJQsqaUBKTNV-1" source="SehAdbR_RGNvju20ljE0-161" target="SehAdbR_RGNvju20ljE0-146">
          <mxGeometry relative="1" as="geometry" />
        </mxCell>
        <mxCell id="SehAdbR_RGNvju20ljE0-165" value="True" style="edgeLabel;html=1;align=center;verticalAlign=middle;resizable=0;points=[];" vertex="1" connectable="0" parent="SehAdbR_RGNvju20ljE0-164">
          <mxGeometry x="-0.0389" y="-1" relative="1" as="geometry">
            <mxPoint as="offset" />
          </mxGeometry>
        </mxCell>
        <mxCell id="SehAdbR_RGNvju20ljE0-161" value="Counter &amp;gt;= 3" style="rhombus;whiteSpace=wrap;html=1;" vertex="1" parent="WIyWlLk6GJQsqaUBKTNV-1">
          <mxGeometry x="2910" y="710" width="160" height="80" as="geometry" />
        </mxCell>
      </root>
    </mxGraphModel>
  </diagram>
</mxfile>
